# xmcd CD database file
#
# Track frame offsets:
#	150
#	37795
#	72910
#	111207
#	134557
#	167570
#	202347
#	241115
#	271850
#	311500
#
# Disc length: 4582 seconds
#
# Revision: 0
# Processed by: cddbd v1.4PL0 Copyright (c) Steve Scherf et al.
# Submitted via: CDex 1.50
#
DISCID=8911e40a
DTITLE=Tommy Flanagan - Live at Fat Tuesday's
DYEAR=1979
DGENRE=Jazz
TTITLE0=Softly as in a Morning Sunrise
TTITLE1=In a Sentimental Mood
TTITLE2=There is no Greater Love
TTITLE3=My One and Only Love
TTITLE4=Communication
TTITLE5=Billie's Bounce
TTITLE6=Waltz New
TTITLE7=Lady Bird
TTITLE8=Thses Foolish Things
TTITLE9=Scrapple from the Apple
EXTD=YEAR: 1979
EXTT0=
EXTT1=
EXTT2=
EXTT3=
EXTT4=
EXTT5=
EXTT6=
EXTT7=
EXTT8=
EXTT9=
PLAYORDER=
